<svg width="24" height="25" viewBox="0 0 24 25" fill="none" xmlns="http://www.w3.org/2000/svg">
<path d="M3 8.41431L21 8.41431C21.41 8.41431 21.75 8.07431 21.75 7.66431C21.75 7.25431 21.41 6.91431 21 6.91431L3 6.91431C2.59 6.91431 2.25 7.25431 2.25 7.66431C2.25 8.07431 2.59 8.41431 3 8.41431Z" fill="black"/>
<path d="M3 13.4143L21 13.4143C21.41 13.4143 21.75 13.0743 21.75 12.6643C21.75 12.2543 21.41 11.9143 21 11.9143L3 11.9143C2.59 11.9143 2.25 12.2543 2.25 12.6643C2.25 13.0743 2.59 13.4143 3 13.4143Z" fill="black"/>
<path d="M3 18.4143L21 18.4143C21.41 18.4143 21.75 18.0743 21.75 17.6643C21.75 17.2543 21.41 16.9143 21 16.9143L3 16.9143C2.59 16.9143 2.25 17.2543 2.25 17.6643C2.25 18.0743 2.59 18.4143 3 18.4143Z" fill="black"/>
</svg>
