<svg width="24" height="24" viewBox="0 0 24 24" fill="none" xmlns="http://www.w3.org/2000/svg">
<path d="M18.6751 4.22903C18.9782 3.92366 19.4696 3.92366 19.7727 4.22903C20.0758 4.5344 20.0758 5.02951 19.7727 5.33488L13.0976 12.0604L19.6527 18.6651C19.9558 18.9705 19.9558 19.4656 19.6527 19.771C19.3497 20.0763 18.8583 20.0763 18.5552 19.771L12 13.1663L5.44482 19.771C5.14174 20.0763 4.65035 20.0763 4.34726 19.771C4.04418 19.4656 4.04418 18.9705 4.34726 18.6651L10.9024 12.0604L4.22731 5.33488C3.92423 5.02951 3.92423 4.5344 4.22731 4.22903C4.53039 3.92366 5.02179 3.92366 5.32487 4.22903L12 10.9546L18.6751 4.22903Z" fill="black"/>
</svg>
