<svg width="42" height="43" viewBox="0 0 42 43" fill="none" xmlns="http://www.w3.org/2000/svg">
<g clip-path="url(#clip0_101_474)">
<path d="M21 0.5C9.42088 0.5 0 9.92089 0 21.5C0 33.0791 9.42088 42.5 21 42.5C32.5791 42.5 42 33.0791 42 21.5C42 9.92089 32.5791 0.5 21 0.5ZM36.8588 32.5588C35.7817 33.0494 33.7218 33.8663 32.1443 33.8364C32.289 32.3917 32.2281 31.179 31.9978 30.084C32.0236 30.0105 32.0489 29.9376 32.0748 29.864C32.5659 29.9686 33.0732 30.0306 33.5936 30.0306C35.549 30.0306 37.5906 29.3999 38.8693 28.9173C38.3311 30.2093 37.6515 31.4254 36.8587 32.5588L36.8588 32.5588ZM20.6618 29.5143C22.4099 27.7225 23.2485 23.914 23.5691 22.0287C25.3676 23.2138 27.0416 24.5257 28.2847 26.1572L28.2583 26.1555C28.2554 26.206 27.9521 31.0452 26.0943 33.3774C24.5405 31.9953 22.6436 30.7574 20.6618 29.5142L20.6618 29.5143ZM1.74412 23.4159C3.21706 24.2603 6.34029 25.789 9.67441 25.789C10.7745 25.789 11.8957 25.6126 12.9878 25.2002C14.8835 26.8431 17.0784 28.2396 19.2154 29.5769C14.2125 32.7284 4.72618 29.8952 3.38309 29.4689C2.52946 27.5882 1.95502 25.5569 1.74368 23.416L1.74412 23.4159ZM22.2544 2.21147C25.9682 2.45159 29.3943 3.73485 32.2481 5.78338C32.2986 7.63941 31.4306 9.22779 30.2657 10.784C28.7641 9.79132 24.9981 7.60838 21.1993 7.74853C21.2016 5.83044 21.5112 3.93941 22.2545 2.21147H22.2544ZM35.5787 14.0796C36.7379 14.0796 37.7363 13.5976 38.4285 13.1444C39.1259 14.5925 39.6613 16.1314 39.9807 17.7508C38.9042 18.165 36.8385 18.8072 35.1462 18.5482C35.3863 17.0282 35.5242 15.534 35.5356 14.0779C35.55 14.0784 35.5649 14.0796 35.5787 14.0796L35.5787 14.0796ZM40.3529 21.5009C40.3529 21.8898 40.3173 22.2701 40.2944 22.6538C39.3086 23.1915 36.4123 24.577 33.9133 24.0962C34.3556 22.5096 34.7313 20.9321 35.0117 19.3771C35.315 19.4231 35.624 19.4518 35.9388 19.4518C37.499 19.4518 39.1172 18.9549 40.1093 18.585C40.254 19.5385 40.3528 20.5076 40.3528 21.5008L40.3529 21.5009ZM31.6041 28.7143C31.2468 27.744 30.7499 26.8335 30.1301 25.8868C29.157 24.4018 27.9001 23.1816 26.5134 22.1006C26.3146 20.8305 26.4439 19.6937 26.8115 18.6447C27.9265 20.4197 30.2714 23.689 32.8874 24.6793C32.4956 26.0229 32.0642 27.37 31.6041 28.7143H31.6041ZM13.8129 24.8206C16.14 23.4448 17.8421 19.9918 18.3826 18.786C19.2208 19.3329 20.0784 19.8591 20.9344 20.379C21.5606 20.7593 22.189 21.1441 22.8112 21.5382C22.5446 23.2162 21.7105 27.4384 19.939 29.06C17.8066 27.7255 15.6656 26.371 13.8131 24.8206L13.8129 24.8206ZM21.7897 18.971C20.5839 18.2386 19.3976 17.5114 18.2901 16.7324C18.6325 15.9896 19.4626 14.804 21.3393 14.1899C22.0108 16.5582 22.9454 18.6826 23.8669 20.256C23.1787 19.8177 22.4825 19.3915 21.7897 18.971V18.971ZM31.699 11.6112C32.3464 12.4321 33.4504 13.581 34.7154 13.9424C34.712 15.3687 34.581 16.8371 34.3484 18.3328C32.9145 17.7009 30.9247 15.3359 29.8631 13.9159C29.936 13.8274 30.0067 13.7401 30.0802 13.6516C30.634 12.9847 31.1866 12.3086 31.699 11.6112L31.699 11.6112ZM24.82 20.2382C23.8549 18.701 22.8399 16.5026 22.1275 14.0153C24.06 13.7062 25.8419 14.5593 26.8162 15.1809C25.7931 16.6623 24.9924 18.3116 24.82 20.2384V20.2382ZM29.326 14.5701C30.3394 15.908 32.4981 18.5401 34.2076 19.1807C33.9313 20.7294 33.5579 22.3028 33.1156 23.8878C30.5174 22.8653 28.0891 19.1774 27.2052 17.7079C27.7434 16.6113 28.5006 15.59 29.3261 14.5703L29.326 14.5701ZM28.813 12.6003C28.307 13.2109 27.7882 13.8434 27.2948 14.5029C26.2085 13.7987 24.1779 12.8187 21.9175 13.2168C21.5383 11.7209 21.2735 10.1487 21.2057 8.57175C24.7053 8.43963 28.2932 10.4881 29.7569 11.44C29.4507 11.826 29.1359 12.2115 28.8131 12.6004L28.813 12.6003ZM32.1983 10.9103C32.867 9.90788 33.4001 8.84338 33.6822 7.67794C34.3158 9.37721 34.6329 11.1929 34.7001 13.0915C33.6575 12.6859 32.7119 11.5916 32.1983 10.9103H32.1983ZM21.131 13.3913C19.067 14.0508 18.0663 15.3359 17.6119 16.2388C16.3998 15.3266 15.318 14.3225 14.4604 13.1403C15.2934 11.8926 17.4498 9.13059 20.4002 8.64927C20.4755 10.2606 20.7466 11.8644 21.131 13.3913H21.131ZM13.8303 15.0268C13.0794 16.1303 11.2992 18.3563 9.14216 18.4613C8.61769 16.9034 8.41663 15.1404 8.62574 13.1201C8.71765 13.1299 8.80956 13.1632 8.9009 13.1632C10.0498 13.1632 11.1321 12.4285 11.8071 11.85C12.3218 13.0472 13.0117 14.0939 13.8303 15.0268L13.8303 15.0268ZM11.4779 11.0354C10.8983 11.5725 9.78907 12.413 8.71996 12.3033C9.02154 10.3472 9.72065 8.1431 10.8644 5.66266C10.7334 7.73752 10.9586 9.51266 11.4779 11.0355L11.4779 11.0354ZM8.24951 18.4137C5.69378 18.011 3.76599 15.6334 2.97775 14.4982C3.64469 12.7887 4.54658 11.2015 5.64555 9.76647C5.97299 10.8275 6.63475 12.2888 7.80319 12.8754C7.56594 14.9629 7.75149 16.7897 8.24955 18.4137H8.24951ZM14.4088 15.6454C15.3894 16.641 16.5032 17.5171 17.686 18.3247C17.2264 19.3627 15.4336 23.1059 13.1323 24.2426C11.5497 22.8117 10.2457 21.1935 9.42996 19.2644C11.7485 19.0111 13.5603 16.8632 14.4086 15.6454H14.4088ZM28.99 27.1637C30.5461 29.6252 31.3458 31.9971 29.5064 38.4481C29.0233 36.7241 28.0271 35.2587 26.6893 33.9484C28.234 32.059 28.7999 28.7859 28.9901 27.1635L28.99 27.1637ZM39.2507 27.876C37.9955 28.3993 34.8079 29.5614 32.3447 29.0892C32.8226 27.6962 33.2713 26.2985 33.6785 24.905C34.1094 24.994 34.5459 25.0492 34.9848 25.0492C37.0644 25.0492 39.11 24.1829 40.2307 23.6182C40.0687 25.0957 39.7275 26.5163 39.2507 27.876V27.876ZM38.065 12.3922C37.4596 12.8023 36.549 13.2544 35.5316 13.2406C35.4794 11.3243 35.1893 9.48093 34.5896 7.74255C35.9682 9.10513 37.1424 10.6705 38.065 12.3921L38.065 12.3922ZM21.3856 2.16821C20.675 3.94438 20.3815 5.87056 20.3913 7.8185C17.253 8.266 14.9863 10.9326 13.9632 12.4009C12.7023 10.3128 12.1346 7.66335 12.6971 4.04659C15.2166 2.84255 18.025 2.14865 20.9996 2.14865C21.13 2.14865 21.2558 2.16531 21.3856 2.16818L21.3856 2.16821ZM9.94429 5.63953C8.88213 8.00056 8.2318 10.1151 7.92106 12.0211C7.03584 11.3881 6.50562 9.91115 6.27576 8.97306C7.35113 7.71157 8.58282 6.59085 9.94415 5.63953H9.94429ZM2.63385 15.4373C3.68797 16.8401 5.77606 19.0484 8.54606 19.2684C9.35374 21.3335 10.683 23.0551 12.2846 24.5648C7.94694 25.9217 3.03826 23.2442 1.694 22.4261C1.67849 22.1171 1.64632 21.8132 1.64632 21.5013C1.64632 19.3822 2.00134 17.3469 2.63379 15.4375L2.63385 15.4373ZM3.87122 30.48C5.53255 30.9677 9.18769 31.8994 12.8849 31.8994C15.4608 31.8994 18.047 31.4359 19.9914 30.0646C22.0089 31.3284 23.9493 32.5755 25.513 33.9622C20.8203 38.2815 9.95858 36.2353 8.03358 35.8263C6.35387 34.304 4.93563 32.5025 3.87107 30.48L3.87122 30.48ZM9.35372 36.9207C10.9358 37.1941 13.3581 37.5199 15.9708 37.5199C19.6295 37.5199 23.6178 36.8604 26.1075 34.539C27.4851 35.8906 28.4886 37.3894 28.8552 39.1713C26.4517 40.2444 23.7977 40.8538 20.9996 40.8538C16.6252 40.8538 12.5983 39.3775 9.35387 36.9206L9.35372 36.9207ZM31.3905 37.8002C31.6904 36.6421 31.9058 35.6018 32.0408 34.6608C32.0925 34.6625 32.1373 34.6757 32.1895 34.6757C33.3873 34.6757 34.767 34.2736 35.8792 33.8566C34.6005 35.3938 33.0812 36.7185 31.3906 37.8001L31.3905 37.8002Z" fill="#BDBDBD"/>
</g>
<defs>
<clipPath id="clip0_101_474">
<rect width="42" height="42" fill="white" transform="translate(0 0.5)"/>
</clipPath>
</defs>
</svg>
