<svg width="42" height="43" fill="none" xmlns="http://www.w3.org/2000/svg"><g clip-path="url(#a)"><path d="M21 .5C9.42.5 0 9.92 0 21.5s9.42 21 21 21 21-9.42 21-21-9.42-21-21-21Zm15.859 32.059c-1.077.49-3.137 1.307-4.715 1.277.145-1.444.084-2.657-.146-3.752.026-.073.05-.146.077-.22a7.28 7.28 0 0 0 1.519.167c1.955 0 3.997-.631 5.275-1.114a19.31 19.31 0 0 1-2.01 3.642Zm-16.197-3.045c1.748-1.791 2.587-5.6 2.907-7.485 1.799 1.185 3.473 2.497 4.716 4.128l-.027-.002c-.003.051-.306 4.89-2.164 7.222-1.553-1.382-3.45-2.62-5.432-3.863ZM1.744 23.416c1.473.844 4.596 2.373 7.93 2.373a9.34 9.34 0 0 0 3.314-.589c1.896 1.643 4.09 3.04 6.227 4.377-5.002 3.151-14.489.318-15.832-.108a19.18 19.18 0 0 1-1.64-6.053h.001ZM22.254 2.21c3.714.24 7.14 1.524 9.994 3.572.05 1.856-.817 3.445-1.982 5.001-1.502-.993-5.268-3.176-9.067-3.035.003-1.919.312-3.81 1.055-5.538ZM35.58 14.08c1.159 0 2.157-.482 2.85-.936a19.151 19.151 0 0 1 1.552 4.607c-1.077.414-3.142 1.056-4.835.797.24-1.52.378-3.014.39-4.47l.043.002Zm4.774 7.42c0 .39-.036.77-.059 1.154-.985.538-3.882 1.923-6.38 1.442a52.012 52.012 0 0 0 1.098-4.719c.303.046.612.075.927.075 1.56 0 3.178-.497 4.17-.867.145.953.244 1.923.244 2.916Zm-8.749 7.214c-.357-.97-.854-1.88-1.474-2.827-.973-1.485-2.23-2.705-3.617-3.786-.198-1.27-.07-2.407.298-3.456 1.116 1.775 3.46 5.044 6.076 6.034a92.126 92.126 0 0 1-1.283 4.035Zm-17.791-3.893c2.327-1.376 4.03-4.83 4.57-6.035a93.31 93.31 0 0 0 2.551 1.593c.627.38 1.255.765 1.877 1.16-.266 1.677-1.1 5.9-2.872 7.521-2.132-1.334-4.273-2.689-6.126-4.24Zm7.977-5.85c-1.206-.732-2.392-1.46-3.5-2.239.343-.742 1.173-1.928 3.05-2.542.67 2.368 1.605 4.493 2.527 6.066-.688-.438-1.384-.864-2.077-1.285Zm9.909-7.36c.647.821 1.751 1.97 3.016 2.331a29.098 29.098 0 0 1-.367 4.39c-1.434-.631-3.423-2.996-4.485-4.416l.217-.264a44.012 44.012 0 0 0 1.619-2.04Zm-6.879 8.627c-.965-1.537-1.98-3.735-2.692-6.223 1.932-.309 3.714.544 4.688 1.166-1.023 1.481-1.824 3.13-1.996 5.057Zm4.506-5.668c1.013 1.338 3.172 3.97 4.882 4.61a50.726 50.726 0 0 1-1.092 4.708c-2.599-1.023-5.027-4.71-5.91-6.18.537-1.097 1.295-2.118 2.12-3.138Zm-.513-1.97a48.95 48.95 0 0 0-1.518 1.903c-1.087-.704-3.117-1.684-5.378-1.286-.379-1.496-.644-3.068-.711-4.645 3.5-.132 7.087 1.916 8.55 2.868a67.5 67.5 0 0 1-.943 1.16Zm3.385-1.69c.669-1.002 1.202-2.067 1.484-3.232.634 1.7.95 3.515 1.018 5.413-1.043-.405-1.988-1.5-2.502-2.18Zm-11.067 2.481c-2.064.66-3.065 1.945-3.52 2.848-1.211-.912-2.293-1.917-3.15-3.099.832-1.247 2.989-4.01 5.94-4.49.075 1.61.346 3.214.73 4.741Zm-7.3 1.636c-.752 1.103-2.532 3.33-4.689 3.434-.524-1.558-.725-3.32-.516-5.34.092.009.184.042.275.042 1.149 0 2.231-.735 2.906-1.313a11.944 11.944 0 0 0 2.023 3.177Zm-2.353-3.992c-.58.537-1.689 1.378-2.758 1.268.302-1.956 1-4.16 2.144-6.64-.13 2.075.095 3.85.614 5.373ZM8.25 18.414c-2.556-.403-4.484-2.78-5.272-3.916a19.338 19.338 0 0 1 2.668-4.732c.327 1.062.989 2.523 2.157 3.11-.237 2.087-.052 3.914.447 5.538Zm6.159-2.769c.98.996 2.094 1.872 3.277 2.68-.46 1.038-2.252 4.78-4.554 5.918-1.582-1.431-2.886-3.05-3.702-4.979 2.319-.253 4.13-2.4 4.979-3.619ZM28.99 27.164c1.556 2.461 2.356 4.833.516 11.284-.483-1.724-1.479-3.19-2.817-4.5 1.545-1.889 2.11-5.162 2.301-6.785Zm10.26.712c-1.255.523-4.442 1.685-6.905 1.213.478-1.393.926-2.79 1.334-4.184.43.089.867.144 1.306.144 2.08 0 4.125-.866 5.246-1.43a19.158 19.158 0 0 1-.98 4.257Zm-1.185-15.484c-.605.41-1.516.862-2.533.849-.053-1.917-.343-3.76-.942-5.498a19.468 19.468 0 0 1 3.475 4.65ZM21.385 2.168c-.71 1.776-1.004 3.703-.994 5.65-3.138.448-5.405 3.115-6.428 4.583-1.26-2.088-1.828-4.738-1.266-8.354A19.195 19.195 0 0 1 21 2.149c.13 0 .256.016.386.02ZM9.946 5.64C8.881 8 8.231 10.115 7.92 12.02c-.885-.633-1.415-2.11-1.645-3.048A19.493 19.493 0 0 1 9.944 5.64Zm-7.311 9.797c1.054 1.403 3.142 3.611 5.912 3.831.808 2.066 2.137 3.787 3.739 5.297-4.338 1.357-9.247-1.32-10.591-2.139-.016-.309-.048-.613-.048-.925 0-2.119.355-4.154.988-6.064ZM3.87 30.48c1.662.488 5.317 1.42 9.014 1.42 2.576 0 5.162-.464 7.106-1.835 2.018 1.263 3.958 2.51 5.522 3.897-4.693 4.32-15.554 2.273-17.48 1.864A19.454 19.454 0 0 1 3.87 30.48Zm5.483 6.44c1.582.274 4.004.6 6.617.6 3.659 0 7.647-.66 10.137-2.981 1.377 1.352 2.38 2.85 2.747 4.632A19.214 19.214 0 0 1 21 40.854c-4.375 0-8.402-1.477-11.646-3.933Zm22.037.88a29.1 29.1 0 0 0 .65-3.14c.052.003.096.016.149.016 1.197 0 2.577-.402 3.69-.82a19.491 19.491 0 0 1-4.49 3.944Z" fill="#BDBDBD"/></g><defs><clipPath id="a"><path fill="#fff" transform="translate(0 .5)" d="M0 0h42v42H0z"/></clipPath></defs></svg>